<svg version="1.0" xmlns="http://www.w3.org/2000/svg"
 width="5000.000000pt" height="4000.000000pt" viewBox="0 0 5000.000000 4000.000000"
 preserveAspectRatio="xMidYMid meet">

<g transform="translate(0.000000,4000.000000) scale(0.100000,-0.100000)"
fill="white" stroke="none">
<path d="M20757 28570 c-43 -337 -55 -1209 -26 -1860 56 -1276 267 -2492 609
-3510 333 -994 778 -1810 1355 -2486 216 -254 787 -816 1685 -1659 483 -453
1112 -1077 1296 -1285 374 -424 610 -766 761 -1103 377 -843 232 -1684 -474
-2755 -63 -96 -112 -176 -110 -178 5 -5 190 128 327 235 265 206 559 470 810
727 997 1021 1561 2129 1651 3240 16 206 6 614 -20 809 -94 691 -348 1335
-796 2015 -330 502 -711 927 -1190 1328 -464 389 -995 726 -1940 1232 -765
409 -1109 608 -1445 837 -845 576 -1409 1216 -1821 2068 -285 590 -499 1322
-619 2115 -17 113 -34 223 -38 245 l-8 40 -7 -55z"/>
<path d="M17495 26808 c3 -18 14 -94 25 -168 80 -529 234 -1224 406 -1827 699
-2458 1848 -4316 3299 -5335 273 -192 821 -532 1637 -1016 709 -421 722 -429
928 -555 679 -415 1084 -703 1425 -1014 476 -433 757 -907 840 -1418 8 -49 15
-93 15 -97 0 -5 5 -8 10 -8 23 0 3 324 -31 495 -102 513 -380 999 -924 1615
-198 224 -797 816 -1365 1351 -783 736 -1352 1293 -1561 1529 -495 558 -915
1260 -1232 2060 -77 195 -115 300 -218 604 l-34 99 -88 38 c-418 180 -840 436
-1200 728 -166 135 -521 486 -659 651 -461 556 -825 1194 -1157 2030 -43 107
-83 212 -90 233 -15 46 -34 49 -26 5z"/>
<path d="M29916 24569 c-487 -63 -1047 -312 -1569 -697 -50 -38 -229 -179
-397 -313 -487 -390 -703 -534 -1019 -680 -58 -26 -105 -51 -103 -54 1 -3 62
-53 135 -112 455 -366 1015 -893 1342 -1263 435 -492 725 -938 864 -1325 l39
-110 43 95 c75 168 313 630 413 803 472 817 1003 1447 1504 1785 430 289 851
398 1262 327 41 -7 77 -11 79 -9 7 6 -107 188 -191 306 -126 178 -241 312
-407 479 -250 250 -480 419 -756 554 -228 112 -436 178 -664 209 -123 18 -455
20 -575 5z"/>
<path d="M24212 15712 c-9 -6 6 -23 51 -60 149 -120 295 -299 358 -437 77
-170 82 -346 13 -502 -92 -210 -315 -404 -668 -579 -605 -300 -1642 -556
-2636 -650 -223 -21 -846 -30 -1065 -15 -819 55 -1555 266 -2033 581 -58 38
-107 68 -109 66 -17 -17 296 -557 525 -906 749 -1143 1499 -1783 2152 -1839
456 -38 1173 171 2020 590 887 438 1709 996 2254 1529 376 368 567 653 616
920 14 75 7 247 -16 379 -83 490 -381 790 -894 902 -87 18 -144 23 -330 26
-124 2 -231 0 -238 -5z"/>
</g>
</svg>
